<?xml version="1.0" encoding="UTF-8"?>
<svg width="190px" height="72px" viewBox="0 0 190 72" version="1.1" xmlns="http://www.w3.org/2000/svg" xmlns:xlink="http://www.w3.org/1999/xlink">
    <!-- Generator: Sketch 53.1 (72631) - https://sketchapp.com -->
    <title>GDPR Complient Badge (black &amp; white)</title>
    <desc>Created with Sketch.</desc>
    <defs>
        <filter x="-6.3%" y="-16.7%" width="112.6%" height="133.3%" filterUnits="objectBoundingBox" id="filter-1">
            <feOffset dx="0" dy="2" in="SourceAlpha" result="shadowOffsetOuter1"></feOffset>
            <feGaussianBlur stdDeviation="2" in="shadowOffsetOuter1" result="shadowBlurOuter1"></feGaussianBlur>
            <feColorMatrix values="0 0 0 0 0.847058824   0 0 0 0 0.866666667   0 0 0 0 0.890196078  0 0 0 1 0" type="matrix" in="shadowBlurOuter1" result="shadowMatrixOuter1"></feColorMatrix>
            <feMerge>
                <feMergeNode in="shadowMatrixOuter1"></feMergeNode>
                <feMergeNode in="SourceGraphic"></feMergeNode>
            </feMerge>
        </filter>
    </defs>
    <g id="GDPR-Complient-Badge-(black-&amp;-white)" stroke="none" stroke-width="1" fill="none" fill-rule="evenodd">
        <g id="GDPR-compliant---GDPR-Copy-4" filter="url(#filter-1)">
            <rect id="Rectangle-" stroke="#F3F3F3" fill="#FFFFFF" x="0.5" y="0.5" width="189" height="71" rx="6"></rect>
            <path d="M6,0 L72,0 L72,72 L6,72 C2.6862915,72 4.05812251e-16,69.3137085 0,66 L0,6 C-4.05812251e-16,2.6862915 2.6862915,6.08718376e-16 6,0 Z" id="Rectangle-" fill="#2050E0"></path>
            <g id="Group" transform="translate(11.000000, 11.000000)" fill="#F8D12E" fill-rule="nonzero">
                <polygon id="Shape" points="25.0000701 0 25.8099837 2.62135836 28.4313725 2.62135836 26.3107645 4.24138673 27.1206781 6.8627451 25.0000701 5.24168458 22.8798827 6.8627451 23.6899364 4.24138673 21.5686275 2.62135836 24.1900163 2.62135836"></polygon>
                <polygon id="Shape" points="25.0000701 43.1372549 25.8099837 45.7593985 28.4313725 45.7593985 26.3107645 47.3791833 27.1206781 50 25.0000701 48.3803627 22.8798827 50 23.6899364 47.3791833 21.5686275 45.7593985 24.1900163 45.7593985"></polygon>
                <polygon id="Shape" points="35.7843137 3.92156863 36.5939225 6.54289726 39.2156863 6.54289726 37.0946348 8.16357475 37.9048044 10.7843137 35.7843137 9.16363624 33.6634024 10.7843137 34.4734318 8.16357475 32.3529412 6.54289726 34.974705 6.54289726"></polygon>
                <polygon id="Shape" points="44.5031516 32.1428571 45.3127108 34.7650786 47.9341737 34.7650786 45.8133924 36.3850026 46.6239329 39.0056022 44.5031516 37.386268 42.3822301 39.0056022 43.1923501 36.3850026 41.0714286 34.7650786 43.6930317 34.7650786"></polygon>
                <polygon id="Shape" points="46.5688378 21.5686275 47.3783969 24.1897605 50 24.1897605 47.8792187 25.8096497 48.6891984 28.4313725 46.5688378 26.8120731 44.4480565 28.4313725 45.258597 25.8096497 43.1372549 24.1897605 45.7582972 24.1897605"></polygon>
                <polygon id="Shape" points="3.43186332 21.5686275 4.2414886 24.1897605 6.8627451 24.1897605 4.74179047 25.8096497 5.55239729 28.4313725 3.43186332 26.8120731 1.31076847 28.4313725 2.12095463 25.8096497 0 24.1897605 2.62167716 24.1897605"></polygon>
                <polygon id="Shape" points="5.2175776 32.1428571 6.02720288 34.7650786 8.64845938 34.7650786 6.52806563 36.3850026 7.3375507 39.0056022 5.2175776 37.386268 3.09662297 39.0056022 3.90666891 36.3850026 1.78571429 34.7650786 4.40753166 34.7650786"></polygon>
                <polygon id="Shape" points="44.5031516 10.7142857 45.3127108 13.3365072 47.9341737 13.3365072 45.8133924 14.9564312 46.6239329 17.5770308 44.5031516 15.9576966 42.3822301 17.5770308 43.1923501 14.9564312 41.0714286 13.3365072 43.6930317 13.3365072"></polygon>
                <polygon id="Shape" points="6.11043474 10.7142857 6.92006003 13.3365072 9.54131653 13.3365072 7.42092278 14.9564312 8.23040784 17.5770308 6.11043474 15.9576966 3.98948012 17.5770308 4.79952606 14.9564312 2.67857143 13.3365072 5.3003888 13.3365072"></polygon>
                <polygon id="Shape" points="37.7453084 41.1764706 38.5548675 43.7974348 41.1764706 43.7974348 39.0551285 45.4182515 39.865669 48.0392157 37.7453084 46.4194309 35.6239662 48.0392157 36.434647 45.4182515 34.3137255 43.7974348 36.9353286 43.7974348"></polygon>
                <polygon id="Shape" points="14.2157564 3.92156863 15.0252414 6.54289726 17.6470588 6.54289726 15.5261042 8.16357475 16.336711 10.7843137 14.2157564 9.16363624 12.0952224 10.7843137 12.9052684 8.16357475 10.7843137 6.54289726 13.4055702 6.54289726"></polygon>
                <polygon id="Shape" points="12.2546916 41.1764706 13.0646714 43.7987832 15.6862745 43.7987832 13.5654932 45.4180826 14.375473 48.0392157 12.2546916 46.4203586 10.134331 48.0392157 10.9443107 45.4180826 8.82352941 43.7987832 11.4445717 43.7987832"></polygon>
            </g>
            <path d="M84,28.5 C84,33.7231884 87.9057864,37 92.703635,37 C95.7414688,37 98.0801187,35.7434783 99.8160237,33.7971014 L99.8160237,27.3666667 L92.0526706,27.3666667 L92.0526706,30.8898551 L95.7414688,30.8898551 L95.7414688,32.2695652 C95.0905045,32.8115942 93.9573442,33.2550725 92.703635,33.2550725 C90.0756677,33.2550725 88.2192136,31.1855072 88.2192136,28.5 C88.2192136,25.8144928 90.0756677,23.7449275 92.703635,23.7449275 C94.2225519,23.7449275 95.4521513,24.6072464 96.1031157,25.6913043 L99.5749258,23.8188406 C98.393546,21.773913 96.2236647,20 92.703635,20 C87.9057864,20 84,23.2768116 84,28.5 Z M102.251113,36.7043478 L102.251113,20.2710145 L109.001855,20.2710145 C114.064911,20.2710145 117.70549,23.3753623 117.70549,28.4753623 C117.70549,33.5753623 114.064911,36.7043478 109.025964,36.7043478 L102.251113,36.7043478 Z M106.397997,33.0086957 L109.001855,33.0086957 C111.8227,33.0086957 113.462166,30.9144928 113.462166,28.4753623 C113.462166,25.9376812 111.967359,23.9666667 109.025964,23.9666667 L106.397997,23.9666667 L106.397997,33.0086957 Z M119.778932,36.7043478 L119.778932,20.2710145 L127.831602,20.2710145 C131.448071,20.2710145 133.425074,22.7594203 133.425074,25.7405797 C133.425074,28.6971014 131.448071,31.1362319 127.831602,31.1362319 L123.925816,31.1362319 L123.925816,36.7043478 L119.778932,36.7043478 Z M129.205861,25.715942 C129.205861,24.5826087 128.386128,23.8434783 127.277077,23.8434783 L123.925816,23.8434783 L123.925816,27.5391304 L127.277077,27.5391304 C128.386128,27.5391304 129.205861,26.8246377 129.205861,25.715942 Z M144.250371,36.7043478 L141.550074,31.1362319 L139.428412,31.1362319 L139.428412,36.7043478 L135.281528,36.7043478 L135.281528,20.2710145 L143.334199,20.2710145 C146.902448,20.2710145 148.927671,22.6855072 148.927671,25.7405797 C148.927671,28.5985507 147.215875,30.126087 145.721068,30.6681159 L149,36.7043478 L144.250371,36.7043478 Z M144.708457,25.6913043 C144.708457,24.557971 143.792285,23.8434783 142.707344,23.8434783 L139.428412,23.8434783 L139.428412,27.5391304 L142.707344,27.5391304 C143.792285,27.5391304 144.708457,26.8246377 144.708457,25.6913043 Z" id="GDPR" fill="#2B3945"></path>
            <path d="M41.5,34.4375 L40.75,34.4375 L40.75,32.046875 C40.75,29.2644531 38.61875,27 36,27 C33.38125,27 31.25,29.2644531 31.25,32.046875 L31.25,34.4375 L30.5,34.4375 C29.671875,34.4375 29,35.1513672 29,36.03125 L29,42.40625 C29,43.2861328 29.671875,44 30.5,44 L41.5,44 C42.328125,44 43,43.2861328 43,42.40625 L43,36.03125 C43,35.1513672 42.328125,34.4375 41.5,34.4375 Z M38.25,34.4375 L33.75,34.4375 L33.75,32.046875 C33.75,30.7287109 34.759375,29.65625 36,29.65625 C37.240625,29.65625 38.25,30.7287109 38.25,32.046875 L38.25,34.4375 Z" id="Shape" fill="#FFFFFF" fill-rule="nonzero"></path>
            <text id="Compliant" font-family="HelveticaNeue-Medium, Helvetica Neue" font-size="8" font-weight="400" letter-spacing="0.200000003" fill="#2B3945">
                <tspan x="84" y="53">COMPLIANT</tspan>
            </text>
        </g>
        <rect id="Rectangle" fill="#FFFFFF" style="mix-blend-mode: color;" x="0" y="0" width="190" height="72" rx="6"></rect>
    </g>
</svg>
