<svg xmlns="http://www.w3.org/2000/svg" viewBox="0 0 100 150"><path d="M38.12 30.73c-11.36 6.56-15.24 21.09-8.68 32.44.01.02.03.04.04.07l13.24 22.91h-.01l7.3 12.63h.01l13.69 23.68 6.85-11.87-30.84-53.36c-3.28-5.68-1.34-12.94 4.34-16.22S57 39.68 60.28 45.35s1.34 12.94-4.34 16.22l5.94 10.28c11.36-6.56 15.24-21.09 8.68-32.44s-21.09-15.24-32.44-8.68z"/><path d="M26.24 10.17C3.53 23.3-4.24 52.35 8.88 75.06L50 146.21l6.85-11.87-37.69-65.22h-.01c-9.84-17.04-4.01-38.83 13.02-48.67S71 16.43 80.85 33.47c9.84 17.04 4.01 38.83-13.02 48.67l5.94 10.27c22.71-13.12 30.48-42.17 17.36-64.88C78 4.82 48.95-2.95 26.24 10.17z"/></svg>